<svg width="111" height="150" viewBox="0 0 111 150" fill="none" xmlns="http://www.w3.org/2000/svg">
    <path d="M58.7891 92.2823C55.3312 91.8317 51.2285 91.8317 47.7705 92.2823C7.3643 97.5463 -12.5382 147.804 14.8406 147.804H91.7191C119.098 147.804 99.1951 97.5463 58.7891 92.2823Z" fill="#B0C3CC"/>
    <path d="M58.7891 92.2824C55.6338 91.8713 51.9471 91.8397 48.6978 92.179C49.0095 92.2115 49.3224 92.2431 49.6251 92.2824C90.0313 97.5464 109.934 147.804 82.555 147.804H91.7188C119.098 147.804 99.1951 97.5464 58.7891 92.2824Z" fill="#3F6D8E"/>
    <path d="M34.9227 86.8547H71.6369V147.804H34.9227V86.8547Z" fill="#DCD2CD"/>
    <path d="M53.2798 88.636L37.5623 98.4941L53.2798 136.883L68.997 98.4941L53.2798 88.636Z" fill="#C4C4C4"/>
    <path d="M73.3391 78.8306C66.0691 96.3357 53.2798 136.883 53.2798 136.883L69.1292 118.237C70.1713 117.011 71.9024 116.628 73.364 117.301L89.0724 124.532C90.9588 125.4 93.0483 123.813 92.7208 121.762C90.9474 110.66 85.4437 83.6329 73.3391 78.8306Z" fill="#F7F3F1"/>
    <path d="M33.2205 78.8306C40.4906 96.3357 53.2798 136.883 53.2798 136.883L37.4305 118.237C36.3884 117.011 34.6573 116.628 33.1956 117.301L17.4872 124.532C15.6008 125.4 13.5114 123.813 13.8389 121.762C15.6119 110.66 21.116 83.6329 33.2205 78.8306Z" fill="#F7F3F1"/>
    <path d="M105.173 50.1384C108.013 47.2988 106.585 41.2673 101.984 36.6666C97.3836 32.0659 91.3521 30.6382 88.5125 33.4778C85.6729 36.3174 87.1005 42.349 91.7012 46.9497C96.3019 51.5504 102.333 52.9781 105.173 50.1384Z" fill="#3F6D8E"/>
    <path d="M101.986 32.3029C106.587 27.7022 108.014 21.6706 105.175 18.831C102.335 15.9914 96.3034 17.4191 91.7027 22.0198C87.102 26.6205 85.6743 32.6521 88.5139 35.4917C91.3535 38.3313 97.3851 36.9036 101.986 32.3029Z" fill="#B0C3CC"/>
    <path d="M92.4966 38.3414C92.1685 26.6194 89.6372 17.6968 85.4507 17.1457C84.0755 16.9646 82.9657 15.9653 82.5181 14.6525C81.2208 10.8495 78.0395 7.85741 73.538 9.66005C71.9223 10.3069 70.0485 9.82821 69.0685 8.38973C64.5905 1.81522 54.8197 1.61571 49.2893 5.24413C48.1959 5.96161 46.8149 6.06532 45.6371 5.49608C22.8995 -5.49581 14.0258 13.062 14.0258 30.7799V72.3688H92.5329V38.3414H92.4966Z" fill="#766D78"/>
    <path d="M91.3116 68.5901H79.0678V79.6866H91.3116C94.3757 79.6866 96.8598 77.2025 96.8598 74.1383C96.8598 71.0742 94.3757 68.5901 91.3116 68.5901Z" fill="#C4C4C4"/>
    <path d="M15.2478 68.5901H27.4915V79.6866H15.2478C12.1836 79.6866 9.69952 77.2025 9.69952 74.1383C9.69952 71.0742 12.1836 68.5901 15.2478 68.5901Z" fill="#C4C4C4"/>
    <path d="M23.4269 43.2278V75.242C23.4269 86.8608 31.1572 96.6735 41.755 99.8191C42.9486 100.173 43.8653 101.1 44.2326 102.289C45.4265 106.153 49.0244 108.959 53.2795 108.959C57.5346 108.959 61.1325 106.152 62.3264 102.289C62.6941 101.1 63.6108 100.173 64.804 99.8191C75.4019 96.6738 83.1322 86.8608 83.1322 75.242V43.2278H23.4269Z" fill="#D8D7DA"/>
    <path d="M76.8363 43.2278V77.0929C76.8363 86.4688 72.3348 94.7291 65.496 99.5985C75.7359 96.2382 83.1325 86.6059 83.1325 75.242V43.2278H76.8363Z" fill="#C4C4C4"/>
    <path d="M32.929 61.0256V66.4396C32.929 68.9706 34.9807 71.0223 37.5116 71.0223H38.6164C39.9518 71.0223 41.2561 70.6206 42.36 69.8694L46.9807 66.7247C48.0805 65.9762 48.7388 64.7319 48.7388 63.4016V61.0259C48.7388 59.1157 47.1904 57.5674 45.2803 57.5674H36.3878C34.4774 57.5671 32.929 59.1157 32.929 61.0256Z" fill="#766D78"/>
    <path d="M15.3205 19.4876C14.4421 23.0871 14.0261 26.9525 14.0261 30.7795V44.2236C39.9377 49.4162 66.6216 49.4162 92.5332 44.2236V38.3411H92.4963C92.4755 37.5928 92.4448 36.8566 92.4061 36.1324C67.2544 21.0547 36.2929 8.49194 15.3205 19.4876Z" fill="#B0C3CC"/>
    <path d="M102.881 34.4777C103.11 34.274 103.335 34.0657 103.553 33.8472C107.689 29.7114 109.114 23.6888 107.273 18.1291C107.054 17.4694 106.537 16.952 105.877 16.7337C100.749 15.0377 95.2274 16.1217 91.1557 19.5459C89.7316 16.7938 87.9166 15.2557 85.7349 14.9686C85.2316 14.9021 84.7836 14.4998 84.5941 13.9441C83.5716 10.9485 81.7153 8.70549 79.3675 7.62795C77.3346 6.69485 75.0348 6.6928 72.7186 7.6218C72.0272 7.89895 71.254 7.7009 70.8808 7.15364C68.4579 3.59524 64.5289 1.34172 59.818 0.808227C55.6672 0.338305 51.2791 1.3092 48.0802 3.40715C47.6235 3.70745 47.0692 3.74934 46.5811 3.51204C46.1343 3.29905 45.6963 3.09573 45.2618 2.9012C44.1538 2.40549 42.8545 2.90207 42.3591 4.01008C41.8637 5.1178 42.36 6.41741 43.4677 6.91282C43.8708 7.09328 44.2769 7.28225 44.6753 7.4718C46.5254 8.37151 48.7549 8.2218 50.4913 7.08127C55.2943 3.93215 63.6606 4.35784 67.2494 9.62834C68.8007 11.9021 71.7207 12.7549 74.3531 11.7008C75.5574 11.218 76.5978 11.1922 77.5347 11.6217C78.7581 12.183 79.8154 13.5468 80.4354 15.3635C81.1716 17.5192 82.9816 19.037 85.1607 19.325C86.1081 19.4495 87.2853 21.0002 88.2773 24.0702C88.2969 24.1482 88.3221 24.2246 88.3502 24.2999C88.9701 26.2839 89.5121 28.8746 89.8719 32.097C69.6412 20.436 40.7595 7.71731 18.8826 15.5402C20.1146 12.4701 21.7417 9.91194 23.7005 8.0718C26.5511 5.39407 30.1136 4.16858 34.2872 4.4302C35.496 4.50286 36.5416 3.58557 36.6175 2.37444C36.6934 1.1633 35.7729 0.120043 34.5617 0.0441641C29.1286 -0.29568 24.4619 1.32707 20.6917 4.86848C15.3568 9.87971 12.1786 18.6181 11.857 29.0229C11.8523 29.1673 11.8268 44.2236 11.8268 44.2236C11.8268 44.2323 11.8279 44.2408 11.8279 44.2496V67.1908C9.26711 68.4556 7.5008 71.0932 7.5008 74.1366C7.5008 78.4077 10.9757 81.8824 15.2469 81.8824H22.0197C22.3095 83.0703 22.6798 84.2346 23.1248 85.3716C19.4167 91.1944 16.7208 98.9692 14.8101 106.285C3.14348 117.733 -2.60398 132.637 1.13342 141.925C3.22902 147.133 8.0967 150.001 14.8397 150.001H91.7167C98.2994 150.001 101.814 147.321 103.603 145.072C106.489 141.444 107.283 135.994 105.837 129.726C105.564 128.543 104.383 127.806 103.202 128.079C102.02 128.352 101.282 129.531 101.555 130.714C102.693 135.65 102.199 139.777 100.163 142.336C98.4371 144.506 95.595 145.607 91.7167 145.607H73.831V119.935L88.1478 126.526C89.7585 127.269 91.6373 127.064 93.0503 125.993C94.4642 124.921 95.1682 123.167 94.8878 121.415C94.5966 119.595 94.2272 117.479 93.7719 115.178C95.3955 117.293 96.8331 119.494 98.0396 121.721C98.4374 122.456 99.1933 122.873 99.9737 122.873C100.327 122.873 100.686 122.787 101.018 122.607C102.085 122.029 102.482 120.696 101.904 119.629C99.3424 114.899 95.8344 110.296 91.7402 106.277C89.8279 98.9607 87.132 91.1879 83.428 85.3728C83.8731 84.2361 84.2431 83.0718 84.5331 81.8838H87.7256V84.9787C87.7256 86.1922 88.7094 87.176 89.9229 87.176C91.1363 87.176 92.1201 86.1922 92.1201 84.9787V81.841C96.0113 81.4341 99.055 78.135 99.055 74.1377C99.055 71.0944 97.2887 68.4568 94.7278 67.192V51.6395C96.7174 52.5281 98.8819 52.9909 101.063 52.9909C102.681 52.9909 104.309 52.7375 105.877 52.2181C106.537 51.9998 107.054 51.4824 107.273 50.823C109.114 45.2636 107.689 39.2407 103.553 35.1049C103.336 34.8881 103.111 34.681 102.881 34.4777ZM103.403 20.6047C104.215 24.2572 103.13 28.0558 100.445 30.7408C98.789 32.399 96.7095 33.4534 94.4489 33.8138C94.1475 30.0869 93.6046 26.7699 92.8438 24.0213C92.982 23.8666 93.1203 23.7114 93.2671 23.5646C95.9519 20.8798 99.7505 19.7935 103.403 20.6047ZM85.3271 66.3946V47.7585C86.9973 47.489 88.6663 47.1989 90.3339 46.8872V66.3946H85.3271ZM37.1167 121.265L51.0799 137.69V145.607H37.1167V121.265ZM53.2766 129.665C51.628 124.547 49.1651 116.983 46.4665 108.978C48.3975 110.363 50.7565 111.157 53.2763 111.157C55.7973 111.157 58.1566 110.364 60.0872 108.979C57.3884 116.984 54.9254 124.547 53.2766 129.665ZM64.1756 97.7129C62.2903 98.2734 60.8135 99.7405 60.2238 101.641C59.2783 104.704 56.4866 106.762 53.2766 106.762C50.0689 106.762 47.2769 104.703 46.3297 101.642C45.7446 99.742 44.2669 98.2731 42.3767 97.7123C37.6356 96.3046 33.3696 93.3453 30.365 89.3803C28.4818 86.895 27.1446 84.1294 26.3753 81.1681L34.3133 72.4174C35.266 72.9289 36.3541 73.2198 37.509 73.2198H38.6138C40.3974 73.2198 42.1192 72.6893 43.5934 71.6862L48.2141 68.5417C49.9168 67.383 50.9331 65.4614 50.9331 63.4022V61.0265C50.9331 59.1992 50.0583 57.5762 48.7098 56.5417L54.3433 50.3302C63.2167 50.2827 72.089 49.6467 80.9322 48.4177V75.2422C80.9322 76.5902 80.8458 77.9243 80.5959 79.221C80.5909 79.2468 80.5862 79.2726 80.5818 79.2984C79.0397 88.1961 72.4839 95.2461 64.1756 97.7129ZM35.1239 66.4406V61.0265C35.1239 60.331 35.6897 59.7653 36.3852 59.7653H45.2774C45.9729 59.7653 46.5386 60.331 46.5386 61.0265V63.4022C46.5386 64.006 46.2406 64.5691 45.7414 64.9089L41.1207 68.0533C40.3786 68.5587 39.5117 68.8256 38.6138 68.8256H37.509C36.1939 68.8256 35.1239 67.7557 35.1239 66.4406ZM43.8392 55.3707H36.3855C33.2668 55.3707 30.7297 57.9078 30.7297 61.0265V66.4403C30.7297 67.417 30.9389 68.3454 31.3124 69.1851L25.6253 75.4546C25.6247 75.3837 25.6212 75.3131 25.6212 75.2419V48.4174C33.2182 49.4733 40.8365 50.0941 48.4584 50.2778L43.8392 55.3707ZM21.2261 66.3946H16.2222V46.8875C17.8889 47.199 19.5568 47.489 21.2261 47.7582V66.3946ZM90.2624 37.4179C90.2753 37.7431 90.2873 38.0703 90.2967 38.4046C90.2999 38.523 90.3128 38.639 90.3339 38.7518V42.413C87.8618 42.8856 85.3959 43.3763 82.9092 43.6892C82.8292 43.6991 82.7504 43.71 82.6734 43.7261C60.6875 47.0492 38.3419 46.6435 16.2228 42.4159C16.2228 42.4159 16.2861 28.265 16.2887 28.214C16.4155 25.7718 16.7226 23.3246 17.2329 20.985C28.8849 15.3661 50.8467 14.0343 90.2624 37.4179ZM15.2469 77.4893C13.3988 77.4893 11.8953 75.9858 11.8953 74.138C11.8953 72.2914 13.3988 70.7894 15.2469 70.7894H21.2264V75.2425C21.2264 75.9966 21.2566 76.746 21.3154 77.4896H15.2469V77.4893ZM26.8625 92.0349C30.0137 96.1933 34.337 99.4177 39.1871 101.266C42.3732 110.45 45.5399 120.051 47.8186 127.069L39.1039 116.817C37.383 114.786 34.5503 114.26 32.2754 115.304L16.565 122.535C16.4211 122.602 16.2855 122.587 16.1601 122.492C16.0335 122.396 15.982 122.267 16.0074 122.109C17.0571 115.537 19.9561 100.256 25.4835 90.0392C25.9127 90.7197 26.3709 91.3863 26.8625 92.0349ZM5.21008 140.284C3.78918 136.753 4.2301 131.723 6.45109 126.121C7.91359 122.432 10.0857 118.698 12.7807 115.184C12.3266 117.483 11.9583 119.597 11.6677 121.415C11.3873 123.168 12.0913 124.923 13.5049 125.994C14.9173 127.065 16.7949 127.269 18.4033 126.527L32.7216 119.936V145.607H14.8391C9.87092 145.607 6.63127 143.816 5.21008 140.284ZM55.4744 145.607V137.689L69.4367 121.265V145.607H55.4744ZM90.5489 122.109C90.5741 122.267 90.5226 122.395 90.396 122.491C90.2697 122.587 90.1329 122.602 89.987 122.535L74.2789 115.303C71.9727 114.245 69.1414 114.827 67.4522 116.815L58.7355 127.069C61.0145 120.051 64.1818 110.449 67.3696 101.265C72.2182 99.4165 76.5404 96.1927 79.6912 92.0349C80.1828 91.3863 80.641 90.7198 81.0705 90.0389C86.5921 100.247 89.4963 115.534 90.5489 122.109ZM92.1207 77.3859V76.0455C92.1207 74.8321 91.1369 73.8483 89.9235 73.8483C88.71 73.8483 87.7262 74.8321 87.7262 76.0455V77.4893H85.238C85.2969 76.7457 85.3271 75.9963 85.3271 75.2422V70.7891H91.3095C93.1575 70.7891 94.661 72.2911 94.661 74.1377C94.6608 75.7057 93.5774 77.0217 92.1207 77.3859ZM103.404 48.3459C100.405 49.0019 97.2321 48.3667 94.7284 46.6118V38.3434C94.7284 38.3 94.724 38.2578 94.7214 38.2151C96.2109 38.0208 97.6479 37.6118 98.9993 37.0019C99.5129 37.3649 99.9995 37.7662 100.446 38.2124C103.13 40.8963 104.215 44.6941 103.404 48.3459Z" fill="#002F6C"/>
    <path d="M68.7104 66.394C67.497 66.394 66.5132 67.3778 66.5132 68.5913V69.9035C66.5132 71.117 67.497 72.1008 68.7104 72.1008C69.9239 72.1008 70.9077 71.117 70.9077 69.9035V68.5913C70.9077 67.3778 69.9239 66.394 68.7104 66.394Z" fill="#002F6C"/>
    <path d="M74.145 59.5663C70.5902 57.0386 66.8314 57.0383 63.2759 59.5663C62.2868 60.2694 62.0554 61.6414 62.7585 62.6302C63.1871 63.2331 63.8639 63.5542 64.5512 63.5542C64.9915 63.5542 65.4362 63.4221 65.8227 63.1476C67.8471 61.7079 69.5744 61.7079 71.5983 63.1476C72.5873 63.8504 73.959 63.6192 74.6624 62.6302C75.3655 61.6414 75.1341 60.2697 74.145 59.5663Z" fill="#002F6C"/>
    <path d="M53.2772 83.3499C56.9926 83.3499 60.0154 80.327 60.0154 76.6116V74.7073C60.0154 73.4938 59.0317 72.51 57.8182 72.51C56.6047 72.51 55.6209 73.4938 55.6209 74.7073V76.6116C55.6209 77.9039 54.5694 78.9553 53.2772 78.9553C51.9849 78.9553 50.9334 77.9039 50.9334 76.6116V74.7073C50.9334 73.4938 49.9496 72.51 48.7361 72.51C47.5227 72.51 46.5389 73.4938 46.5389 74.7073V76.6116C46.5389 80.327 49.5617 83.3499 53.2772 83.3499Z" fill="#002F6C"/>
    <path d="M62.3184 84.8998C56.2344 88.014 50.3193 88.014 44.2355 84.8998C43.1554 84.3469 41.8314 84.7741 41.2783 85.8545C40.7255 86.9347 41.1529 88.2586 42.2331 88.8115C45.897 90.6868 49.5869 91.6246 53.2768 91.6246C56.9668 91.6246 60.6567 90.6868 64.3206 88.8115C65.4008 88.2586 65.8282 86.9347 65.2754 85.8545C64.7228 84.7741 63.3986 84.3469 62.3184 84.8998Z" fill="#002F6C"/>
    <path d="M23.2508 133.012H24.7101C25.9235 133.012 26.9073 132.028 26.9073 130.815C26.9073 129.601 25.9235 128.618 24.7101 128.618H23.2508C22.0373 128.618 21.0535 129.601 21.0535 130.815C21.0535 132.029 22.0373 133.012 23.2508 133.012Z" fill="#002F6C"/>
    <path d="M24.7104 136.77H23.2511C22.0376 136.77 21.0538 137.754 21.0538 138.967C21.0538 140.181 22.0376 141.164 23.2511 141.164H24.7104C25.9238 141.164 26.9076 140.181 26.9076 138.967C26.9076 137.754 25.9238 136.77 24.7104 136.77Z" fill="#002F6C"/>
    <path d="M83.3033 128.618H81.844C80.6305 128.618 79.6467 129.602 79.6467 130.815C79.6467 132.029 80.6305 133.012 81.844 133.012H83.3033C84.5167 133.012 85.5005 132.029 85.5005 130.815C85.5005 129.601 84.5167 128.618 83.3033 128.618Z" fill="#002F6C"/>
    <path d="M83.3033 136.77H81.844C80.6305 136.77 79.6467 137.754 79.6467 138.967C79.6467 140.181 80.6305 141.164 81.844 141.164H83.3033C84.5167 141.164 85.5005 140.181 85.5005 138.967C85.5005 137.754 84.5167 136.77 83.3033 136.77Z" fill="#002F6C"/>
</svg>
