<svg width="445" height="445" viewBox="0 0 445 445" fill="none" xmlns="http://www.w3.org/2000/svg">
<path d="M168.512 384.758C195.51 384.758 195.51 402.141 222.507 402.141C249.503 402.141 249.503 384.758 276.5 384.758C285.474 384.758 291.458 386.682 296.449 389.247L333.149 311.361L222.5 240.419L111.851 311.361L148.554 389.252C153.546 386.685 159.532 384.758 168.512 384.758Z" fill="#B0C3CC"/>
<path d="M6.51855 402.141C33.5175 402.141 33.5175 384.758 60.5174 384.758C87.5172 384.758 87.5164 402.141 114.516 402.141C141.514 402.141 141.514 384.758 168.512 384.758C195.51 384.758 195.51 402.141 222.507 402.141C249.503 402.141 249.503 384.758 276.499 384.758C303.496 384.758 303.496 402.141 330.493 402.141C357.491 402.141 357.491 384.758 384.489 384.758C411.485 384.758 411.485 402.141 438.481 402.141V438.481H6.51855V402.141Z" fill="#E2F6FF"/>
<path d="M333.149 311.362L222.5 240.419L111.851 311.362L122.837 334.678L222.5 270.78L322.163 334.678L333.149 311.362Z" fill="#B0C3CC"/>
<path d="M239.084 91.6457H205.911L201.496 65.0934H243.498L239.084 91.6457Z" fill="#B0C3CC"/>
<path d="M248.783 11.4831H222.5V37.7659H248.783V11.4831Z" fill="#365E7D"/>
<path d="M275.059 47.3682H248.778V21.088H275.059L270.092 33.6566L275.059 47.3682Z" fill="#365E7D"/>
<path d="M193.283 259.152L222.5 240.419L251.717 259.151H323.645C342.924 211.386 342.924 157.175 323.645 109.41H121.355C102.076 157.175 102.076 211.386 121.355 259.151H193.283V259.152Z" fill="#01579B"/>
<path d="M202.285 195.83V215.756C203.932 217.326 204.897 218.246 206.544 219.815H238.455C240.102 218.246 241.067 217.326 242.714 215.756V195.883L253.939 185.39V172.457C253.939 154.944 239.62 140.776 222.051 141.021C204.792 141.261 190.849 155.594 191.061 172.853L191.058 185.392L202.285 195.83Z" fill="#D8D7DA"/>
<path d="M137.926 311.362L235.537 248.778L222.5 240.419L111.851 311.361L148.554 389.252C153.547 386.685 159.533 384.758 168.513 384.758C169.948 384.758 171.292 384.817 172.582 384.91L137.926 311.362Z" fill="#365E7D"/>
<path d="M194.587 384.758C189.356 384.758 185.145 385.415 181.55 386.469C196.515 390.847 200.741 402.141 222.507 402.141C227.737 402.141 231.948 401.484 235.544 400.431C220.578 396.053 216.353 384.758 194.587 384.758Z" fill="#365E7D"/>
<path d="M289.535 386.469C292.108 387.222 294.367 388.177 296.449 389.247L298.492 384.911C295.083 385.157 292.142 385.705 289.535 386.469Z" fill="#365E7D"/>
<path d="M356.568 402.141C378.335 402.141 382.56 390.846 397.526 386.468C393.929 385.415 389.72 384.758 384.489 384.758C362.722 384.758 358.497 396.053 343.531 400.431C347.128 401.484 351.337 402.141 356.568 402.141Z" fill="#E1F5FE"/>
<path d="M73.5545 386.468C69.958 385.416 65.7479 384.758 60.5174 384.758C33.5184 384.758 33.5184 402.141 6.51855 402.141V438.481H32.5928V402.141C54.3613 402.141 58.5862 390.846 73.5545 386.468Z" fill="#E1F5FE"/>
<path d="M248.581 402.141C270.346 402.141 274.572 390.846 289.537 386.468C285.94 385.415 281.73 384.758 276.5 384.758C254.735 384.758 250.51 396.053 235.544 400.431C239.141 401.484 243.351 402.141 248.581 402.141Z" fill="#E1F5FE"/>
<path d="M140.59 402.141C162.358 402.141 166.583 390.846 181.55 386.468C177.953 385.415 173.744 384.758 168.512 384.758C146.745 384.758 142.52 396.053 127.553 400.431C131.15 401.484 135.36 402.141 140.59 402.141Z" fill="#E1F5FE"/>
<path d="M137.926 311.361L235.537 248.778L222.5 240.419L111.851 311.361L122.838 334.678L142.862 321.839L137.926 311.361Z" fill="#365E7D"/>
<path d="M248.574 270.78L235.537 279.138L322.162 334.678L328.212 321.839L248.574 270.78Z" fill="#365E7D"/>
<path d="M201.496 65.0934L205.911 91.6457H223.294L218.879 65.0934H201.496Z" fill="#365E7D"/>
<path d="M147.429 109.411H121.355C102.076 157.175 102.076 211.387 121.355 259.152H147.429C128.15 211.387 128.15 157.175 147.429 109.411Z" fill="#002F6C"/>
<path d="M277.791 259.152L248.574 240.419L235.537 248.778L251.717 259.152H323.645H277.791Z" fill="#002F6C"/>
<path d="M219.667 195.83L208.443 185.393L208.445 172.854C208.268 158.443 217.964 146.078 231.215 142.249C228.31 141.413 225.236 140.977 222.052 141.022C204.794 141.262 190.85 155.594 191.062 172.854L191.06 185.393L202.285 195.83V215.756C203.932 217.326 204.897 218.246 206.544 219.815H223.927C222.28 218.246 221.314 217.326 219.667 215.756V195.83Z" fill="#ACABB1"/>
<path d="M239.434 141.021C236.587 141.061 233.833 141.491 231.214 142.248C244.337 146.027 253.939 158.118 253.939 172.458V185.391L242.714 195.884V215.757C241.067 217.327 240.102 218.246 238.455 219.816H255.838C257.485 218.246 258.45 217.327 260.097 215.757V195.884L271.322 185.391V172.458C271.323 154.945 257.004 140.776 239.434 141.021Z" fill="#002F6C"/>
<path d="M46.9336 412.303H33.8965V425.34H46.9336V412.303Z" fill="#002F6C"/>
<path d="M90.3906 412.303H77.3535V425.34H90.3906V412.303Z" fill="#002F6C"/>
<path d="M68.6621 412.303H55.625V425.34H68.6621V412.303Z" fill="#002F6C"/>
<path d="M396.45 413.876H383.413V426.913H396.45V413.876Z" fill="white"/>
<path d="M418.178 413.876H405.141V426.913H418.178V413.876Z" fill="white"/>
<path d="M374.721 413.876H337.974V426.913H374.721V413.876Z" fill="white"/>
<path d="M438.481 395.622C426.901 395.622 421.392 392.075 415.015 387.969C407.932 383.408 399.904 378.24 384.489 378.24C369.073 378.24 361.044 383.408 353.962 387.969C347.584 392.075 342.076 395.622 330.494 395.622C318.913 395.622 313.403 392.075 307.026 387.969C299.943 383.408 291.915 378.24 276.5 378.24C261.085 378.24 253.057 383.408 245.975 387.969C240.93 391.217 236.418 394.107 229.026 395.177V379.003H215.989V395.177C208.597 394.107 204.085 391.217 199.039 387.968C191.957 383.407 183.928 378.239 168.512 378.239C153.097 378.239 145.068 383.407 137.986 387.968C131.607 392.075 126.098 395.622 114.516 395.622C102.934 395.622 97.4246 392.075 91.0451 387.968C83.9625 383.407 75.9333 378.239 60.5174 378.239C45.1014 378.239 37.0723 383.407 29.9897 387.968C23.6102 392.075 18.1016 395.622 6.51855 395.622H0V445H445V395.622H438.481ZM431.963 431.963H13.0371V408.324C24.3464 407.108 31.0361 402.801 37.0462 398.93C43.4257 394.824 48.9352 391.277 60.5174 391.277C72.1004 391.277 77.609 394.824 83.9885 398.93C91.0712 403.491 99.0994 408.659 114.516 408.659C129.932 408.659 137.961 403.491 145.044 398.93C151.423 394.824 156.931 391.277 168.512 391.277C180.094 391.277 185.602 394.824 191.981 398.93C199.064 403.491 207.092 408.659 222.508 408.659C237.923 408.659 245.95 403.491 253.033 398.93C259.411 394.824 264.919 391.277 276.5 391.277C288.081 391.277 293.59 394.824 299.967 398.93C307.05 403.491 315.078 408.659 330.494 408.659C345.909 408.659 353.938 403.491 361.02 398.93C367.398 394.824 372.907 391.277 384.489 391.277C396.07 391.277 401.579 394.824 407.956 398.93C413.966 402.8 420.656 407.107 431.963 408.324V431.963Z" fill="#002F6C"/>
<path d="M263.492 362.517L280.628 373.503L287.663 362.53L270.528 351.544L263.492 362.517Z" fill="#002F6C"/>
<path d="M271.637 338.902L296.159 354.624L303.195 343.65L278.672 327.928L271.637 338.902Z" fill="white"/>
<path d="M242.091 304.487L235.054 315.464L246.031 322.5L253.068 311.523L242.091 304.487Z" fill="white"/>
<path d="M264.315 334.199L271.352 323.222L260.375 316.186L253.339 327.162L264.315 334.199Z" fill="white"/>
<path d="M297.182 132.516C298.294 136.546 299.289 140.67 300.137 144.774L312.904 142.133C311.997 137.753 310.936 133.351 309.748 129.047L297.182 132.516Z" fill="white"/>
<path d="M308.493 243.874C314.276 224.592 317.209 204.537 317.209 184.266C317.208 180.609 317.109 176.902 316.917 173.251L303.898 173.938C304.078 177.363 304.17 180.839 304.171 184.268C304.171 203.268 301.423 222.062 296.004 240.128L308.493 243.874Z" fill="white"/>
<path d="M316.252 164.304C315.824 159.859 315.245 155.369 314.531 150.958L301.661 153.043C302.331 157.177 302.874 161.386 303.274 165.552L316.252 164.304Z" fill="white"/>
<path d="M176.793 220.77H163.736V233.808H172.959V243.031H185.996V230.003L196.627 219.37L203.936 226.334H241.063L248.4 219.343L259.059 230.004V243.032H272.096V233.808H281.319V220.77H268.262L249.233 201.738V198.712L260.458 188.219V172.457C260.458 167.512 259.513 162.72 257.723 158.272L268.206 147.79H281.245V134.753H272.022V125.53H258.985V138.575L250.607 146.951C250.136 146.433 249.653 145.923 249.151 145.428C241.861 138.239 232.174 134.384 221.959 134.501C211.046 134.653 201.258 139.438 194.43 146.936L186.067 138.575V125.53H173.03V134.753H163.807V147.79H176.846L187.296 158.238C185.463 162.754 184.478 167.691 184.542 172.85L184.539 188.23L195.764 198.668V201.792L176.793 220.77ZM235.847 213.297H209.153L208.803 212.964V208.268H236.197V212.964L235.847 213.297ZM222.143 147.539C228.893 147.441 235.213 149.994 239.998 154.712C244.786 159.433 247.422 165.736 247.422 172.457V182.56L236.197 193.053V195.231H208.803V192.99L197.579 182.553L197.58 172.772C197.411 159.049 208.43 147.73 222.143 147.539Z" fill="#002F6C"/>
<path d="M222.5 413.876H175.132V426.913H222.5V413.876Z" fill="#002F6C"/>
<path d="M141.079 214.067C140.442 209.937 139.931 205.723 139.561 201.545L126.575 202.697C126.97 207.153 127.515 211.647 128.195 216.054L141.079 214.067Z" fill="#002F6C"/>
<path d="M125.798 180.292C125.773 181.623 125.76 182.955 125.76 184.287C125.76 187.42 125.833 190.603 125.975 193.744L138.998 193.154C138.865 190.207 138.797 187.224 138.797 184.287C138.797 183.038 138.81 181.789 138.833 180.541L125.798 180.292Z" fill="#002F6C"/>
<path d="M145.403 234.626C144.322 230.588 143.359 226.457 142.541 222.347L129.755 224.891C130.628 229.278 131.656 233.689 132.81 238L145.403 234.626Z" fill="#002F6C"/>
<path d="M341.485 308.963L340.885 310.235L341.485 308.963L222.5 232.676L103.516 308.963L135.246 376.303L147.039 370.746L143.158 362.51L181.516 337.916L174.479 326.941L137.554 350.617L131.173 337.077L215.982 282.704V349.14H229.019V282.704L313.826 337.077L297.963 370.742L309.756 376.299L341.485 308.963ZM222.5 263.037L125.57 325.183L120.187 313.76L222.5 248.162L324.813 313.76L319.43 325.183L222.5 263.037Z" fill="#002F6C"/>
<path d="M216.764 164.867H204.491V177.904H216.764V164.867Z" fill="#002F6C"/>
<path d="M240.865 164.867H228.593V177.904H240.865V164.867Z" fill="#002F6C"/>
<path d="M229.019 180.886H215.981V191.505H229.019V180.886Z" fill="#002F6C"/>
<path d="M111.944 252.633H103.031V265.67H161.077V252.633H125.808C112.576 217.509 109.993 178.737 118.038 142.183H147.965V129.146H121.387C122.7 124.692 124.169 120.282 125.808 115.929H319.192C335.649 159.616 335.649 208.947 319.192 252.633H283.923V265.67H341.969V252.633H333.056C348.394 208.702 348.394 159.86 333.056 115.929H341.969V102.892H229.015V98.1651H244.608L251.189 58.5749H229.019V44.2818H242.259V53.8867H284.352L277.062 33.7566L284.642 14.5685H255.296V4.96366H229.019V0H215.981V4.96366H215.978V44.2818H215.981V58.574H193.804L200.386 98.1642H215.977V102.891H103.031V115.929H111.944C96.6059 159.859 96.6059 208.702 111.944 252.633ZM265.475 27.6065L263.124 33.5567L265.765 40.8496H255.296V27.6065H265.475ZM242.259 18.0008V31.2447H229.019V18.0008H242.259ZM211.436 85.1271L209.188 71.6111H235.807L233.559 85.1271H229.015V78.3695H215.978V85.1271H211.436Z" fill="#002F6C"/>
</svg>
