<svg width="535" height="535" viewBox="0 0 535 535" fill="none" xmlns="http://www.w3.org/2000/svg">
<path d="M281.567 63.4477H253.432L247.673 31.5779C245.439 19.2156 254.937 7.84479 267.5 7.84479C280.062 7.84479 289.56 19.2145 287.326 31.5769L281.567 63.4477Z" fill="#B0C3CC"/>
<path d="M267.5 7.84479C264.901 7.84479 262.437 8.33744 260.178 9.21815C268.842 12.5966 274.454 21.7709 272.682 31.5758L266.923 63.4456H281.567L287.326 31.5758C289.56 19.2156 280.061 7.84479 267.5 7.84479Z" fill="#01579B"/>
<path d="M133.16 113.265L113.265 133.16L86.658 114.696C76.3373 107.534 75.0142 92.7778 83.8966 83.8954C92.779 75.013 107.536 76.3362 114.697 86.6568L133.16 113.265Z" fill="#B0C3CC"/>
<path d="M83.8956 83.8955C82.0578 85.7332 80.6645 87.8231 79.6897 90.0447C88.205 86.3075 98.6616 88.8262 104.341 97.012L122.805 123.619L133.159 113.265L114.695 86.6579C107.536 76.3362 92.778 75.0131 83.8956 83.8955Z" fill="#01579B"/>
<path d="M63.4467 253.432V281.567L31.577 287.326C19.2156 289.56 7.84485 280.06 7.84485 267.499C7.84485 254.937 19.2146 245.439 31.577 247.673L63.4467 253.432Z" fill="#B0C3CC"/>
<path d="M7.84485 267.499C7.84485 270.098 8.3375 272.562 9.21821 274.821C12.5967 266.157 21.7709 260.545 31.5759 262.317L63.4457 268.076V253.432L31.5759 247.673C19.2156 245.439 7.84485 254.937 7.84485 267.499Z" fill="#01579B"/>
<path d="M113.265 401.839L133.16 421.734L114.696 448.342C107.535 458.663 92.7779 459.986 83.8955 451.103C75.0131 442.221 76.3362 427.464 86.6569 420.303L113.265 401.839Z" fill="#B0C3CC"/>
<path d="M83.8955 451.102C85.7333 452.94 87.8232 454.333 90.0448 455.308C86.3075 446.793 88.8262 436.336 97.012 430.657L123.62 412.193L113.265 401.838L86.6579 420.302C76.3363 427.463 75.0131 442.22 83.8955 451.102Z" fill="#01579B"/>
<path d="M253.432 471.551H281.567L287.326 503.421C289.56 515.783 280.061 527.153 267.5 527.153C254.937 527.153 245.439 515.783 247.673 503.421L253.432 471.551Z" fill="#B0C3CC"/>
<path d="M267.5 527.153C270.098 527.153 272.562 526.661 274.821 525.78C266.158 522.401 260.545 513.227 262.317 503.422L268.076 471.552H253.432L247.673 503.422C245.439 515.783 254.937 527.153 267.5 527.153Z" fill="#01579B"/>
<path d="M401.839 421.734L421.734 401.839L448.342 420.303C458.663 427.464 459.986 442.221 451.103 451.103C442.221 459.986 427.464 458.663 420.303 448.342L401.839 421.734Z" fill="#B0C3CC"/>
<path d="M451.102 451.102C452.94 449.265 454.333 447.175 455.308 444.953C446.793 448.69 436.336 446.172 430.657 437.986L412.193 411.377L401.838 421.733L420.302 448.341C427.463 458.662 442.22 459.985 451.102 451.102Z" fill="#01579B"/>
<path d="M471.551 281.567V253.432L503.421 247.673C515.783 245.439 527.153 254.938 527.153 267.499C527.153 280.062 515.783 289.56 503.421 287.326L471.551 281.567Z" fill="#B0C3CC"/>
<path d="M527.153 267.5C527.153 264.901 526.661 262.437 525.78 260.178C522.401 268.842 513.227 274.454 503.422 272.682L471.552 266.923V281.567L503.422 287.326C515.783 289.56 527.153 280.061 527.153 267.5Z" fill="#01579B"/>
<path d="M421.732 133.16L401.838 113.265L420.302 86.658C427.463 76.3373 442.22 75.0142 451.102 83.8966C459.985 92.779 458.662 107.536 448.341 114.697L421.732 133.16Z" fill="#B0C3CC"/>
<path d="M451.102 83.8965C449.265 82.0588 447.175 80.6655 444.953 79.6907C448.69 88.2059 446.172 98.6625 437.986 104.342L411.377 122.806L421.733 133.16L448.341 114.696C458.662 107.536 459.985 92.7789 451.102 83.8965Z" fill="#01579B"/>
<path d="M267.5 325.112C299.316 325.112 325.109 299.318 325.109 267.499C325.109 235.681 299.316 209.887 267.5 209.887C235.683 209.887 209.89 235.681 209.89 267.499C209.89 299.318 235.683 325.112 267.5 325.112Z" fill="#B0C3CC"/>
<path d="M267.499 209.887C266.304 209.887 265.12 209.935 263.942 210.007C290.409 211.72 311.351 233.719 311.351 260.62C311.351 288.639 288.639 311.352 260.621 311.352C233.721 311.352 211.724 290.41 210.012 263.941C209.939 265.119 209.891 266.303 209.891 267.499C209.891 299.318 235.684 325.112 267.5 325.112C299.317 325.112 325.11 299.318 325.11 267.499C325.109 235.681 299.316 209.887 267.499 209.887Z" fill="#3F6D8E"/>
<path d="M267.5 449.516C167.14 449.516 85.4917 367.863 85.4917 267.498C85.4917 167.134 167.14 85.4822 267.5 85.4822C367.859 85.4822 449.506 167.134 449.506 267.498C449.506 367.863 367.859 449.516 267.5 449.516ZM267.5 134.328C193.588 134.328 133.457 194.068 133.457 267.499C133.457 340.931 193.589 400.671 267.5 400.671C341.41 400.671 401.541 340.93 401.541 267.499C401.541 194.069 341.411 134.328 267.5 134.328Z" fill="#B0C3CC"/>
<path d="M267.499 85.4833C265.897 85.4833 264.3 85.5052 262.708 85.5471C355.74 88.0093 430.663 164.456 430.663 258.077C430.663 353.246 353.242 430.671 258.077 430.671C164.462 430.671 88.0177 355.744 85.5544 262.707C85.5126 264.3 85.4906 265.897 85.4906 267.499C85.4906 367.864 167.139 449.516 267.498 449.516C367.858 449.516 449.505 367.863 449.505 267.499C449.507 167.135 367.859 85.4833 267.499 85.4833Z" fill="#01579B"/>
<path d="M267.5 290.258C280.069 290.258 290.258 280.068 290.258 267.499C290.258 254.93 280.069 244.741 267.5 244.741C254.93 244.741 244.741 254.93 244.741 267.499C244.741 280.068 254.93 290.258 267.5 290.258Z" fill="#01579B"/>
<path d="M267.499 236.895C265.532 236.895 263.563 237.085 261.648 237.456L264.639 252.858C265.572 252.677 266.534 252.585 267.498 252.585C275.721 252.585 282.411 259.275 282.411 267.499C282.411 275.722 275.721 282.413 267.498 282.413C259.276 282.413 252.585 275.723 252.585 267.499C252.585 263.994 253.761 260.716 255.985 258.019L243.881 248.037C239.376 253.499 236.895 260.411 236.895 267.499C236.895 284.374 250.624 298.103 267.498 298.103C284.372 298.103 298.1 284.374 298.1 267.499C298.101 250.624 284.373 236.895 267.499 236.895Z" fill="#002F6C"/>
<path d="M524.953 246.017C518.569 240.684 510.211 238.475 502.026 239.952L463.706 246.878V259.655H457.176C455.279 213.214 436.627 171.025 407.111 138.982L411.786 134.306L420.82 143.34L452.813 121.141C459.648 116.398 463.994 108.925 464.736 100.638C465.478 92.3532 462.532 84.2291 456.65 78.3466C450.768 72.4651 442.638 69.5175 434.357 70.2602C426.071 71.0028 418.6 75.3488 413.856 82.1832L391.657 114.175L400.691 123.209L396.016 127.884C363.974 98.3624 321.786 79.7074 275.344 77.81V71.2894H288.12L295.046 32.9701C296.525 24.7833 294.315 16.427 288.981 10.0424C283.646 3.65777 275.817 0 267.499 0C259.181 0 251.352 3.66091 246.017 10.0455C240.683 16.4302 238.473 24.7864 239.952 32.9733L246.878 71.2925H259.655V77.8194C245.873 78.3853 232.219 80.4187 218.965 83.9269L218.653 84.0095L222.667 99.1761L222.98 99.0935C237.435 95.2684 252.414 93.3281 267.499 93.3281C363.532 93.3281 441.661 171.46 441.661 267.499C441.661 363.539 363.534 441.672 267.499 441.672C171.465 441.672 93.3364 363.538 93.3364 267.498C93.3364 210.469 121.425 156.933 168.475 124.292C172.576 121.447 176.845 118.748 181.164 116.274L173.36 102.661C168.653 105.36 164 108.301 159.531 111.4C152.251 116.45 145.404 121.975 138.986 127.89L134.307 123.212L143.341 114.177L121.142 82.1853C116.399 75.3509 108.927 71.0049 100.64 70.2623C92.3658 69.5196 84.2302 72.4661 78.3476 78.3487C72.4661 84.2302 69.5196 92.3564 70.2623 100.64C71.0049 108.927 75.3509 116.398 82.1853 121.142L114.177 143.341L123.212 134.307L127.891 138.987C97.6783 171.821 79.7032 214.503 77.8299 259.655H71.2915V246.878L32.9722 239.952C24.7854 238.472 16.4302 240.683 10.0445 246.017C3.66091 251.352 0 259.181 0 267.499C0 275.817 3.66091 283.647 10.0455 288.981C15.129 293.228 21.4644 295.496 27.9683 295.496C29.6324 295.496 31.306 295.346 32.9733 295.046L71.2925 288.12V275.344H77.8226C79.72 321.784 98.3718 363.973 127.888 396.016L123.213 400.692L114.179 391.658L82.1864 413.857C75.352 418.6 71.006 426.072 70.2633 434.357C69.5207 442.644 72.4672 450.769 78.3487 456.651C83.634 461.936 90.7267 464.851 98.1207 464.851C98.9575 464.851 99.7985 464.813 100.642 464.738C108.927 463.995 116.399 459.65 121.143 452.815L143.342 420.823L134.308 411.788L138.983 407.114C171.025 436.636 213.214 455.29 259.656 457.188V463.709H246.879L239.953 502.029C238.474 510.215 240.684 518.571 246.018 524.956C251.352 531.34 259.182 535.001 267.501 535.001C275.818 535.001 283.648 531.34 288.982 524.956C294.316 518.571 296.526 510.215 295.047 502.029L288.121 463.709H275.345V457.188C321.787 455.29 363.976 436.636 396.017 407.114L400.692 411.788L391.658 420.823L413.857 452.815C418.6 459.65 426.073 463.995 434.358 464.738C435.202 464.813 436.041 464.851 436.879 464.851C444.273 464.851 451.368 461.935 456.651 456.651C462.533 450.769 465.479 442.644 464.737 434.358C463.994 426.073 459.649 418.601 452.814 413.857L420.822 391.658L411.787 400.692L407.112 396.016C436.628 363.974 455.279 321.784 457.177 275.344H463.707V288.12L502.027 295.046C503.695 295.348 505.368 295.496 507.032 295.496C513.536 295.496 519.87 293.228 524.954 288.981C531.339 283.646 535 275.817 535 267.499C534.998 259.181 531.337 251.352 524.953 246.017ZM426.747 91.1294C428.831 88.1254 432.116 86.2155 435.757 85.8891C439.391 85.5544 442.97 86.8587 445.556 89.4433C448.14 92.0279 449.435 95.5978 449.109 99.2389C448.782 102.881 446.871 106.165 443.867 108.25L422.644 122.976L412.02 112.352L426.747 91.1294ZM259.986 55.6019L255.392 30.1816C254.742 26.5845 255.713 22.911 258.059 20.1047C260.403 17.2983 263.844 15.6886 267.499 15.6886C271.155 15.6886 274.595 17.2973 276.939 20.1036C279.284 22.911 280.256 26.5834 279.606 30.1816L275.012 55.6019H259.986ZM112.353 122.977L91.1294 108.251C88.1254 106.167 86.2155 102.882 85.8891 99.241C85.5628 95.5999 86.8577 92.0279 89.4423 89.4444C91.7644 87.1213 94.8824 85.84 98.1333 85.84C98.5015 85.84 98.8707 85.8567 99.241 85.8902C102.882 86.2165 106.167 88.1264 108.251 91.1305L122.977 112.354L112.353 122.977ZM55.6019 275.013L30.1816 279.607C26.5845 280.256 22.911 279.286 20.1036 276.94C17.2973 274.597 15.6886 271.156 15.6886 267.501C15.6886 263.845 17.2973 260.403 20.1036 258.059C22.3389 256.193 25.1233 255.196 27.9819 255.196C28.712 255.196 29.4484 255.261 30.1816 255.393L55.6019 259.987V275.013ZM108.251 443.868C106.166 446.873 102.882 448.782 99.2399 449.11C95.602 449.437 92.0269 448.14 89.4433 445.557C86.8577 442.971 85.5628 439.399 85.8902 435.758C86.2165 432.117 88.1264 428.832 91.1305 426.748L112.354 412.022L122.978 422.646L108.251 443.868ZM279.606 504.817C280.256 508.414 279.284 512.088 276.94 514.894C274.596 517.701 271.155 519.309 267.499 519.309C263.844 519.309 260.401 517.701 258.057 514.894C255.713 512.088 254.742 508.416 255.392 504.817L259.986 479.396H275.013L279.606 504.817ZM422.645 412.021L443.868 426.747C446.873 428.832 448.782 432.116 449.11 435.758C449.436 439.399 448.14 442.971 445.556 445.555C442.971 448.14 439.398 449.426 435.759 449.109C432.117 448.782 428.833 446.871 426.748 443.867L412.022 422.644L422.645 412.021ZM514.894 276.94C512.088 279.284 508.418 280.259 504.816 279.607L479.396 275.013V259.986L504.816 255.392C508.409 254.74 512.087 255.713 514.894 258.057C517.701 260.401 519.309 263.844 519.309 267.499C519.309 271.155 517.7 274.596 514.894 276.94Z" fill="#002F6C"/>
<path d="M409.387 267.498C409.387 189.742 345.736 126.483 267.501 126.483C189.263 126.483 125.613 189.743 125.613 267.498C125.613 345.254 189.262 408.516 267.5 408.516C276.419 408.516 285.35 407.683 294.043 406.042V406.041C296.759 405.528 299.489 404.929 302.158 404.261L298.344 389.041C295.973 389.635 293.547 390.167 291.132 390.623V390.624C285.944 391.604 280.659 392.253 275.344 392.578V332.47C287.525 331.008 298.681 326.191 307.869 318.967L350.619 361.719C348.519 363.543 346.358 365.314 344.12 367.018L344.119 367.019C342.175 368.5 340.155 369.947 338.115 371.32L346.875 384.335C349.168 382.791 351.439 381.166 353.626 379.5C389.063 352.523 409.387 311.7 409.387 267.498ZM393.442 259.654L332.466 259.655C331.004 247.473 326.187 236.317 318.964 227.127L361.789 184.299C379.987 204.617 391.641 230.83 393.442 259.654ZM275.344 142.422C304.079 144.181 330.241 155.529 350.619 173.28L307.87 216.032C298.681 208.808 287.525 203.991 275.344 202.529V142.422ZM259.655 142.422V202.529C247.474 203.991 236.318 208.809 227.129 216.032L184.379 173.28C204.757 155.529 230.92 144.181 259.655 142.422ZM173.21 184.3L216.036 227.127C208.812 236.316 203.994 247.473 202.532 259.655L141.556 259.654C143.358 230.831 155.011 204.618 173.21 184.3ZM141.556 275.343L202.532 275.344C203.994 287.526 208.812 298.682 216.036 307.872L173.21 350.699C155.012 330.381 143.358 304.168 141.556 275.343ZM259.655 392.576C230.92 390.817 204.758 379.469 184.379 361.718L227.129 318.966C236.318 326.189 247.474 331.007 259.654 332.469V392.576H259.655ZM267.5 317.266C240.059 317.266 217.735 294.941 217.735 267.5C217.735 240.058 240.059 217.732 267.5 217.732C294.939 217.732 317.263 240.058 317.263 267.5C317.263 294.941 294.94 317.266 267.5 317.266ZM318.964 307.871C326.187 298.682 331.004 287.525 332.467 275.344L393.449 275.343C391.705 303.575 380.562 329.89 361.814 350.724L318.964 307.871Z" fill="#002F6C"/>
<path d="M317.803 399.362C322.896 397.438 327.934 395.193 332.774 392.689L325.569 378.752C321.264 380.978 316.785 382.975 312.256 384.686L317.803 399.362Z" fill="#002F6C"/>
<path d="M208.369 103.661L203.025 88.9088C197.913 90.7612 192.823 92.8574 187.895 95.1428L194.494 109.377C199.013 107.282 203.682 105.36 208.369 103.661Z" fill="#002F6C"/>
</svg>
